<svg width="90" height="89" viewBox="0 0 90 89" fill="none" xmlns="http://www.w3.org/2000/svg">
    <g clip-path="url(#clip0_33_2)">
        <path
            d="M68.9945 74.6692C68.9945 74.6692 68.9868 74.6692 68.983 74.673C68.9677 74.6922 68.9562 74.7075 68.9562 74.7075C68.9562 74.7075 68.9792 74.6845 68.9983 74.6692H68.9945Z"
            fill="#0071BD" />
        <path
            d="M89.08 14.3525L88.9812 12.2603L87.1671 11.2106C79.1094 6.54354 65.8361 0.8231 48.3858 0.080613C26.466 -0.852068 9.93015 6.64961 2.02248 11.2069L0.201006 12.2567L0.102251 14.3561C-0.256191 22.0004 0.318048 29.685 1.80302 37.1976C4.12558 48.9494 8.0465 59.0004 13.4597 67.0727C20.0762 76.9481 29.1946 81.7359 38.8506 86.8089L40.2514 87.5441C41.5901 88.25 43.0897 88.6012 44.5929 88.6012C46.0962 88.6012 47.5958 88.25 48.9345 87.5441C52.8408 85.4886 56.9848 83.305 60.9862 80.7227C59.973 81.3775 52.8335 78.4733 51.5204 77.8296C48.064 76.1362 45.6354 73.3089 43.3494 70.2694C40.694 66.7362 36.5134 61.173 35.8696 53.2288C35.0906 43.635 41.5316 30.4165 52.5921 30.2995C56.7507 30.2556 59.7755 32.5013 60.9094 33.4486C61.0813 32.1758 61.4287 28.3536 59.1464 24.5498C55.6754 18.7635 49.1283 18.021 48.3676 17.9442C47.8006 16.5397 46.3888 13.599 43.2506 11.2362C41.1 9.6159 38.9749 8.90268 37.6253 8.56618C45.0538 7.8749 55.8107 7.86392 67.9465 11.4374C73.1696 12.9736 77.694 14.8938 81.4905 16.825C81.6332 23.1489 81.0845 29.4875 79.8556 35.7017C77.4343 47.9363 73.5207 57.5667 68.2135 64.3295C64.9839 68.4479 60.7887 71.7361 56.3411 74.5671C57.7017 75.0499 59.6621 75.5765 62.0578 75.6716C65.0461 75.7887 67.4637 75.1888 68.9889 74.6768C69.3547 74.2671 73.8279 69.622 74.2558 69.077C80.3128 61.3559 84.7311 50.6282 87.3902 37.1976C88.8752 29.685 89.4494 22.0004 89.091 14.3561L89.08 14.3525ZM15.0837 34.3155C12.4246 39.0155 12.1539 43.507 12.1759 45.7454C11.5651 43.0498 10.9543 40.3505 10.3398 37.6548C10.5446 36.6161 10.936 35.3652 11.6931 34.0851C14.2205 29.7947 18.8436 28.5768 20.0726 28.2915C18.6278 29.5204 16.693 31.4772 15.0837 34.3191V34.3155ZM35.8623 76.085C33.5507 75.0462 28.6423 72.4091 25.8881 66.941C21.8611 58.9529 24.0959 48.2289 31.7073 40.3395C30.3504 43.1156 27.7974 49.2932 28.3826 57.3801C29.0922 67.1568 33.9531 73.7441 35.8623 76.085ZM41.9046 17.3846C42.9544 17.6699 43.8249 18.0649 44.5088 18.4453C43.1445 19.1695 41.7766 19.8937 40.4123 20.6179L36.2573 17.2712C37.4534 17.0115 39.5199 16.7409 41.9046 17.3882V17.3846Z"
            fill="#EF4444" />
        <path
            d="M69.8815 15.7458L72.0322 21.9308L78.5792 22.0625L73.3599 26.02L75.2545 32.2854L69.8815 28.5474L64.5049 32.2854L66.4032 26.02L61.1838 22.0625L67.7309 21.9308L69.8815 15.7458Z"
            fill="#EF4444" />
        <path
            d="M69.0037 35.8259L69.9657 38.5911L72.8917 38.6532L70.5582 40.4198L71.4067 43.2252L69.0037 41.55L66.6007 43.2252L67.4493 40.4198L65.1157 38.6532L68.0418 38.5911L69.0037 35.8259Z"
            fill="#EF4444" />
        <path
            d="M65.1157 47.0144L65.5949 48.397L67.0579 48.4262L65.8912 49.3114L66.3154 50.7122L65.1157 49.8746L63.9124 50.7122L64.3367 49.3114L63.1699 48.4262L64.633 48.397L65.1157 47.0144Z"
            fill="#EF4444" />
    </g>
    <defs>
        <clipPath id="clip0_33_2">
            <rect width="89.1862" height="88.601" fill="white" />
        </clipPath>
    </defs>
</svg>